<svg xmlns="http://www.w3.org/2000/svg" version="1.0" preserveAspectRatio="xMidYMid meet" viewBox="204 359.23 583.91 299.14"><metadata>Created by potrace 1.16, written by Peter Selinger 2001-2019</metadata><g transform="translate(0.000000,1024.000000) scale(0.100000,-0.100000)" fill="" stroke="none"><path d="M6175 6618 c-90 -78 -243 -368 -338 -641 -6 -16 -11 -14 -48 13 -75 54 -160 32 -254 -65 -92 -97 -208 -196 -258 -221 -27 -14 -70 -28 -96 -31 -43 -5 -50 -3 -65 18 -9 13 -16 41 -16 62 0 41 -3 39 57 22 36 -10 103 27 160 87 78 84 83 137 16 183 -66 44 -117 30 -211 -59 -127 -120 -166 -246 -103 -333 70 -97 189 -81 338 46 40 33 75 61 77 61 2 0 -2 -17 -10 -37 -19 -53 -17 -76 7 -107 29 -37 75 -59 108 -51 35 8 143 98 201 169 25 30 48 55 52 55 4 1 2 -14 -3 -31 -5 -18 -12 -69 -15 -114 -6 -66 -3 -87 11 -118 15 -32 65 -81 82 -81 3 0 7 56 8 125 2 90 8 148 24 210 31 117 41 139 109 227 98 129 201 292 258 408 79 160 74 212 -23 231 -25 5 -37 0 -68 -28z m64 -120 c-6 -12 -27 -47 -46 -75 -19 -29 -36 -61 -38 -70 -1 -10 -8 -17 -14 -15 -6 1 -15 -6 -18 -15 -4 -10 -26 -47 -50 -82 -24 -36 -43 -69 -43 -75 0 -5 -3 -7 -6 -4 -13 13 113 234 189 331 32 41 46 44 26 5z m-969 -576 c-39 -64 -77 -99 -91 -85 -14 14 12 55 61 100 51 47 65 41 30 -15z m508 -15 c2 -11 -39 -61 -119 -142 -68 -69 -126 -125 -131 -125 -20 0 -4 43 38 106 98 145 200 223 212 161z m-618 -43 c0 -8 -5 -12 -10 -9 -6 4 -8 11 -5 16 9 14 15 11 15 -7z"></path><path d="M4600 6514 c-228 -49 -530 -209 -530 -281 0 -11 8 -28 19 -37 17 -16 20 -16 47 7 31 25 198 117 213 117 8 0 -80 -219 -111 -279 -8 -14 -33 -31 -66 -43 -54 -20 -77 -44 -62 -68 7 -11 16 -12 45 -3 33 11 36 10 32 -5 -65 -218 -97 -339 -97 -365 0 -51 52 -116 92 -117 19 0 19 2 39 120 14 88 69 269 109 356 30 67 36 70 183 97 37 7 68 17 69 22 2 23 -48 36 -119 31 -67 -4 -94 4 -58 18 8 3 15 14 15 25 0 10 11 43 24 71 14 29 32 83 42 119 9 36 24 72 32 78 24 20 109 41 210 53 84 11 96 10 112 -5 36 -33 64 6 44 60 -18 45 -149 59 -284 29z"></path><path d="M3280 6189 c-213 -43 -325 -81 -504 -171 -129 -65 -223 -134 -336 -247 -85 -86 -112 -121 -143 -184 -32 -65 -39 -90 -40 -145 -2 -92 23 -137 104 -191 60 -40 72 -43 127 -25 19 6 5 24 -18 24 -30 0 -53 54 -45 107 12 83 48 143 142 235 48 49 122 113 163 144 77 58 215 133 225 122 3 -3 -8 -30 -26 -59 -65 -111 -168 -329 -232 -494 -103 -267 -147 -424 -147 -525 0 -45 4 -56 30 -80 16 -15 50 -36 75 -47 25 -10 45 -21 45 -24 0 -4 -42 -21 -92 -39 -51 -18 -109 -39 -128 -48 -47 -21 -184 -21 -208 1 -9 8 -35 20 -57 26 -45 13 -81 41 -113 87 -25 37 -62 52 -62 25 0 -15 42 -88 85 -149 21 -29 72 -61 157 -97 81 -35 82 -46 3 -16 -83 31 -112 48 -161 93 -48 45 -55 43 -22 -5 27 -41 58 -66 80 -67 9 0 20 -4 23 -10 3 -6 -1 -7 -12 -4 -16 5 -16 4 1 -6 21 -14 129 -42 164 -42 12 0 22 -4 22 -8 0 -13 59 -30 101 -30 97 0 232 41 381 116 163 82 231 136 449 353 220 221 288 306 365 462 58 117 134 304 134 329 0 10 4 21 8 24 5 3 9 45 10 94 2 109 -20 191 -76 278 -105 162 -277 232 -472 193z m185 -9 c14 -7 8 -8 -20 -3 -22 3 -42 7 -44 9 -9 8 45 2 64 -6z m218 -119 c20 -19 37 -38 37 -42 0 -4 -15 7 -32 25 -18 17 -49 44 -68 59 -31 25 -32 26 -5 11 17 -10 47 -33 68 -53z m-120 -46 c20 -11 37 -22 37 -27 0 -11 -8 -10 -33 6 -12 8 -56 20 -97 26 -84 13 -211 -2 -331 -40 -71 -22 -88 -25 -74 -11 11 9 115 44 180 60 66 17 273 7 318 -14z m-45 -36 c46 -8 73 -19 90 -36 24 -24 24 -29 19 -121 -6 -104 -34 -198 -96 -320 -128 -252 -408 -574 -655 -753 -59 -44 -112 -79 -116 -79 -29 0 -7 153 47 315 78 236 190 498 312 730 l63 119 -46 44 c-25 24 -46 47 -46 52 0 8 102 34 199 50 70 12 157 11 229 -1z m-538 -44 c0 -2 -23 -16 -51 -30 -119 -61 -231 -143 -376 -278 -37 -34 -58 -51 -48 -37 37 48 190 183 256 226 55 36 208 123 217 124 1 0 2 -2 2 -5z m-410 -98 c0 -2 -25 -25 -56 -52 -35 -29 -51 -39 -41 -24 9 13 26 31 38 39 11 8 28 20 37 27 18 13 22 15 22 10z m-139 -120 c-10 -9 -11 -8 -5 6 3 10 9 15 12 12 3 -3 0 -11 -7 -18z m-25 -29 c-3 -24 -80 -152 -83 -141 -4 12 15 55 54 116 24 39 32 46 29 25z m14 -263 c0 -8 -4 -15 -10 -15 -5 0 -10 7 -10 15 0 8 5 15 10 15 6 0 10 -7 10 -15z m1220 -95 c-6 -12 -14 -20 -17 -17 -2 3 1 14 8 26 17 26 24 19 9 -9z m-20 -45 c0 -8 -4 -15 -10 -15 -5 0 -7 7 -4 15 4 8 8 15 10 15 2 0 4 -7 4 -15z m33 -20 c-3 -9 -8 -14 -10 -11 -3 3 -2 9 2 15 9 16 15 13 8 -4z m-73 -29 c0 -8 -4 -17 -10 -21 -5 -3 -7 -12 -4 -19 3 -7 -4 -24 -15 -37 l-20 -24 3 35 c3 39 22 80 36 80 6 0 10 -6 10 -14z m44 -38 c-9 -18 -19 -28 -21 -21 -5 13 27 67 34 59 3 -2 -3 -19 -13 -38z m-139 -76 c-15 -16 -16 -15 -4 12 7 15 15 23 17 16 3 -7 -3 -19 -13 -28z m74 -19 c-28 -46 -129 -151 -129 -134 0 7 15 26 33 44 19 18 51 56 72 84 44 60 59 63 24 6z m-209 -238 c-7 -8 -17 -15 -23 -15 -6 0 -2 7 9 15 25 19 30 19 14 0z m-310 -150 c0 -2 -10 -9 -22 -15 -22 -11 -22 -10 -4 4 21 17 26 19 26 11z m-80 -60 c-7 -9 -15 -13 -19 -10 -3 3 1 10 9 15 21 14 24 12 10 -5z m-100 -89 c0 -2 -7 -7 -16 -10 -8 -3 -12 -2 -9 4 6 10 25 14 25 6z m-426 -195 c4 -5 -3 -7 -14 -4 -23 6 -26 13 -6 13 8 0 17 -4 20 -9z"></path><path d="M4652 6048 c-7 -7 -12 -19 -12 -29 0 -9 -23 -88 -51 -175 -60 -189 -67 -255 -30 -285 45 -36 68 -23 104 61 39 89 92 172 153 238 l43 47 1 -31 c0 -49 44 -81 103 -76 23 3 22 29 -3 37 -16 5 -20 15 -20 49 0 52 -16 102 -36 110 -8 3 -24 2 -37 -3 -35 -13 -120 -110 -162 -183 -22 -37 -40 -66 -42 -64 -4 4 42 115 71 170 21 39 23 51 14 76 -9 28 -55 70 -75 70 -5 0 -14 -5 -21 -12z"></path><path d="M6970 5389 c-84 -51 -290 -295 -290 -344 0 -8 -10 -20 -22 -25 -13 -5 -57 -31 -98 -59 -41 -28 -76 -48 -78 -46 -2 2 8 65 23 140 23 112 26 140 16 159 -16 30 -58 54 -107 62 -29 4 -44 13 -55 33 -23 39 -83 66 -149 66 -101 -1 -184 -71 -314 -264 -122 -184 -331 -344 -473 -365 -61 -9 -77 11 -68 82 10 79 13 85 44 77 70 -18 101 -17 148 6 93 44 243 230 243 300 0 15 -15 49 -32 75 -72 108 -199 117 -313 22 -87 -72 -141 -130 -180 -193 -48 -77 -79 -151 -70 -173 2 -7 0 -10 -5 -7 -11 7 -40 -53 -40 -83 0 -26 -37 -71 -69 -83 -62 -24 -77 64 -41 249 26 131 18 168 -39 200 -46 26 -71 27 -112 6 -43 -22 -186 -150 -221 -198 -23 -31 -29 -35 -23 -16 4 14 13 36 20 50 7 14 25 55 39 92 25 63 26 69 11 97 -20 39 -52 70 -90 86 -37 16 -60 5 -70 -32 -14 -58 -68 -150 -108 -186 -60 -54 -139 -90 -207 -95 l-57 -4 -7 75 c-10 96 -29 135 -85 164 -35 18 -60 23 -119 23 -93 0 -140 -20 -223 -97 -120 -111 -194 -342 -145 -456 20 -48 92 -124 129 -136 67 -21 141 -24 182 -7 68 29 155 113 155 151 0 7 -56 -31 -85 -58 -33 -30 -75 -59 -74 -50 0 4 33 35 74 68 41 33 77 70 81 83 3 12 14 22 25 22 12 0 16 5 12 15 -3 9 1 21 10 28 8 7 18 25 22 42 10 45 23 55 69 55 52 0 145 26 169 48 22 20 35 7 14 -15 -8 -10 -19 -31 -22 -48 -4 -16 -16 -56 -26 -87 -27 -82 -25 -139 5 -167 35 -33 93 -51 127 -39 32 11 43 23 149 163 109 144 261 327 267 321 3 -3 -2 -26 -10 -53 -22 -68 -31 -192 -17 -242 6 -23 24 -57 41 -76 60 -68 145 -70 228 -4 27 21 51 39 53 39 3 0 19 -22 36 -49 56 -91 134 -106 266 -51 91 38 169 88 255 164 36 31 68 56 73 56 4 0 8 -16 8 -35 0 -42 30 -87 78 -117 26 -16 44 -19 82 -16 41 4 62 15 126 64 87 66 172 146 196 184 9 14 18 23 20 20 8 -8 -20 -156 -36 -194 -8 -19 -38 -52 -72 -78 -33 -24 -95 -72 -139 -106 l-80 -61 -285 -11 c-540 -21 -885 -49 -902 -74 -5 -7 -8 -6 -8 3 0 9 -6 11 -17 6 -22 -9 -59 -15 -148 -21 -38 -3 -73 -10 -76 -15 -3 -6 -39 -12 -80 -14 -41 -2 -96 -9 -124 -16 -27 -6 -62 -11 -77 -11 -15 -1 -25 -5 -22 -9 3 -5 -8 -6 -23 -3 -16 3 -64 -3 -108 -14 -44 -11 -100 -23 -125 -27 -47 -8 -384 -84 -705 -160 -376 -89 -590 -170 -482 -183 20 -3 25 0 21 11 -3 8 2 17 13 20 169 51 300 83 308 75 3 -2 -50 -23 -117 -46 -118 -39 -120 -41 -63 -35 33 3 114 23 180 44 102 32 255 77 490 143 156 44 639 138 851 166 88 11 215 29 284 40 124 19 311 38 570 60 74 6 153 13 175 15 22 2 126 7 230 10 l190 6 -30 -26 c-120 -106 -238 -219 -283 -270 -73 -83 -152 -241 -152 -305 0 -66 24 -128 68 -173 89 -92 220 -116 346 -63 49 21 145 87 185 130 45 46 36 46 -15 1 -67 -61 -180 -126 -226 -132 -32 -3 -39 -2 -28 6 8 6 21 11 27 11 7 0 48 17 90 38 59 28 97 56 152 112 66 66 82 91 137 205 65 136 125 289 154 390 l17 60 114 3 c114 3 325 -20 361 -39 27 -14 22 -34 -14 -64 l-33 -26 40 16 c53 21 69 38 61 63 -18 56 -144 91 -348 99 -80 3 -152 9 -159 14 -9 5 -10 14 -1 36 6 15 18 64 28 108 10 49 25 89 38 103 25 28 149 112 164 112 7 0 6 -15 -4 -42 -31 -85 -16 -133 55 -182 55 -38 128 -37 192 4 48 31 136 124 204 215 21 28 51 64 67 82 17 17 41 48 54 70 13 21 23 34 24 28 0 -5 -9 -24 -19 -42 -32 -52 -79 -217 -92 -322 -29 -228 46 -416 191 -478 47 -20 123 -12 199 22 74 33 147 107 225 227 58 90 67 110 39 87 -15 -13 -16 -11 -9 11 27 94 40 178 40 275 1 105 0 112 -28 150 -16 22 -25 31 -21 20 32 -87 30 -224 -6 -341 -38 -125 -85 -210 -157 -283 -105 -107 -198 -129 -256 -61 -32 38 -40 98 -32 222 14 224 49 366 157 641 l22 58 -20 27 c-22 30 -89 72 -115 72 -9 0 -36 -22 -59 -50 -23 -27 -48 -50 -55 -50 -7 0 -22 13 -34 29 -23 34 -130 91 -169 91 -14 0 -42 -10 -61 -21z m170 -125 c0 -8 5 -23 12 -33 10 -16 8 -25 -13 -54 -81 -116 -358 -395 -379 -382 -15 9 -12 35 3 29 19 -7 39 20 42 55 5 63 186 318 265 373 53 37 70 40 70 12z m-110 -17 c0 -2 -10 -12 -22 -23 l-23 -19 19 23 c18 21 26 27 26 19z m-670 -18 c0 -6 -17 -25 -37 -43 -231 -202 -298 -255 -309 -243 -7 6 59 96 136 185 40 46 81 82 105 93 44 20 105 25 105 8z m-680 -21 c0 -76 -157 -238 -230 -238 -39 0 23 93 127 189 81 75 103 85 103 49z m-1566 -55 c4 -9 -2 -25 -14 -38 -19 -20 -19 -22 -3 -38 13 -13 14 -20 5 -29 -15 -15 -39 5 -58 51 -14 34 -14 36 8 53 29 22 54 23 62 1z m-96 -152 l38 -44 -24 -26 c-14 -14 -50 -62 -82 -107 -44 -62 -68 -86 -104 -103 -88 -43 -113 -16 -80 88 30 96 71 175 125 243 l52 66 19 -36 c10 -20 35 -57 56 -81z m3201 -88 c-9 -32 -21 -71 -24 -88 -4 -16 -10 -24 -12 -18 -6 16 37 163 47 163 4 0 -1 -26 -11 -57z m-1176 12 c-3 -9 -8 -14 -10 -11 -3 3 -2 9 2 15 9 16 15 13 8 -4z m-853 -61 c0 -27 -4 -43 -10 -39 -17 11 -11 85 7 85 2 0 3 -21 3 -46z m1036 -266 c-10 -24 -26 -40 -48 -48 -18 -8 -47 -24 -64 -37 -17 -13 -39 -23 -48 -23 -9 0 -15 -4 -12 -8 3 -5 -36 -37 -87 -73 -152 -107 -298 -265 -336 -364 l-11 -30 6 29 c15 82 138 241 247 320 76 56 132 101 262 210 55 46 101 78 103 72 1 -7 -4 -28 -12 -48z m1029 -176 c-7 -7 -23 34 -29 78 -6 44 -6 43 13 -15 11 -32 18 -61 16 -63z m-1065 85 c0 -16 -64 -197 -91 -257 -76 -170 -153 -285 -243 -363 -87 -75 -161 -97 -204 -59 -17 14 -21 32 -24 95 -2 42 0 77 4 77 4 0 14 16 22 35 24 56 118 175 195 247 106 99 341 253 341 225z m-579 -414 c-8 -15 -10 -15 -11 -2 0 17 10 32 18 25 2 -3 -1 -13 -7 -23z m-12 -210 c-1 -52 -3 -55 -15 -38 -8 10 -14 25 -14 31 0 13 21 64 26 64 2 0 3 -26 3 -57z"></path><path d="M7856 4884 c-9 -22 3 -32 14 -14 12 19 12 30 1 30 -5 0 -12 -7 -15 -16z"></path><path d="M7841 4821 c-8 -5 -9 -11 -3 -15 11 -7 -6 -72 -33 -131 -10 -19 -15 -40 -12 -47 5 -16 33 47 58 132 10 36 19 66 19 67 0 6 -16 2 -29 -6z"></path><path d="M4080 4759 c0 -5 5 -7 10 -4 6 3 10 8 10 11 0 2 -4 4 -10 4 -5 0 -10 -5 -10 -11z"></path><path d="M2868 4023 c7 -3 16 -2 19 1 4 3 -2 6 -13 5 -11 0 -14 -3 -6 -6z"></path></g></svg>